<svg aria-hidden="true" style="position: absolute; width: 0; height: 0; overflow: hidden;" version="1.1" xmlns="http://www.w3.org/2000/svg" xmlns:xlink="http://www.w3.org/1999/xlink">
<defs>
<symbol id="icon-group" viewBox="0 0 153 32">
<path fill="#fff" style="fill: var(--color1, #fff)" d="M11.113 21.333h-2.508v-10.108h-4.858v10.108h-2.5v-12.133h9.867v12.133zM13.804 16.742c0-0.894 0.172-1.692 0.517-2.392s0.839-1.242 1.483-1.625c0.65-0.383 1.403-0.575 2.258-0.575 1.217 0 2.208 0.372 2.975 1.117 0.772 0.744 1.203 1.756 1.292 3.033l0.017 0.617c0 1.383-0.386 2.494-1.158 3.333-0.772 0.833-1.808 1.25-3.108 1.25s-2.339-0.417-3.117-1.25c-0.772-0.833-1.158-1.967-1.158-3.4v-0.108zM16.212 16.917c0 0.856 0.161 1.511 0.483 1.967 0.322 0.45 0.783 0.675 1.383 0.675 0.583 0 1.039-0.222 1.367-0.667 0.328-0.45 0.492-1.167 0.492-2.15 0-0.839-0.164-1.489-0.492-1.95s-0.789-0.692-1.383-0.692c-0.589 0-1.044 0.23-1.367 0.692-0.322 0.456-0.483 1.164-0.483 2.125zM24.378 19.392c0.544-0.578 0.914-1.15 1.108-1.717s0.303-1.369 0.325-2.408l0.067-2.95h6.633v7.075h1.3v4.65h-2.408v-2.708h-5.342v2.708h-2.458v-4.65h0.775zM27.22 19.392h2.892v-5.083h-1.875l-0.017 1.083c-0.050 1.656-0.383 2.989-1 4zM43.752 21.333h-2.417v-7.067h-3.017v7.067h-2.408v-9.017h7.842v9.017zM52.051 12.317h2.408v9.017h-2.408v-5.567l-3.017 5.567h-2.417v-9.017h2.417v5.558l3.017-5.558zM61.075 19.558c0.444 0 0.806-0.122 1.083-0.367s0.422-0.57 0.433-0.975h2.258c-0.006 0.611-0.172 1.172-0.5 1.683-0.328 0.506-0.778 0.9-1.35 1.183-0.567 0.278-1.194 0.417-1.883 0.417-1.289 0-2.306-0.408-3.050-1.225-0.744-0.822-1.117-1.956-1.117-3.4v-0.158c0-1.389 0.37-2.497 1.108-3.325s1.753-1.242 3.042-1.242c1.128 0 2.031 0.322 2.708 0.967 0.683 0.639 1.031 1.492 1.042 2.558h-2.258c-0.011-0.467-0.156-0.844-0.433-1.133-0.278-0.294-0.644-0.442-1.1-0.442-0.561 0-0.986 0.206-1.275 0.617-0.283 0.406-0.425 1.067-0.425 1.983v0.25c0 0.928 0.142 1.594 0.425 2s0.714 0.608 1.292 0.608zM72.474 21.333c-0.111-0.217-0.192-0.486-0.242-0.808-0.583 0.65-1.342 0.975-2.275 0.975-0.883 0-1.617-0.255-2.2-0.767-0.578-0.511-0.867-1.156-0.867-1.933 0-0.956 0.353-1.689 1.058-2.2 0.711-0.511 1.736-0.77 3.075-0.775h1.108v-0.517c0-0.417-0.108-0.75-0.325-1-0.211-0.25-0.547-0.375-1.008-0.375-0.406 0-0.725 0.097-0.958 0.292-0.228 0.194-0.342 0.461-0.342 0.8h-2.408c0-0.522 0.161-1.006 0.483-1.45s0.778-0.792 1.367-1.042c0.589-0.256 1.25-0.383 1.983-0.383 1.111 0 1.992 0.281 2.642 0.842 0.656 0.556 0.983 1.339 0.983 2.35v3.908c0.006 0.856 0.125 1.503 0.358 1.942v0.142h-2.433zM70.482 19.658c0.356 0 0.683-0.078 0.983-0.233 0.3-0.161 0.522-0.375 0.667-0.642v-1.55h-0.9c-1.206 0-1.847 0.417-1.925 1.25l-0.008 0.142c0 0.3 0.106 0.547 0.317 0.742s0.5 0.292 0.867 0.292zM84.773 14.25h-2.892v7.083h-2.417v-7.083h-2.842v-1.933h8.15v1.933zM89.589 14.958h1.725c0.778 0 1.461 0.131 2.050 0.392s1.039 0.636 1.35 1.125c0.317 0.483 0.475 1.047 0.475 1.692 0 0.95-0.353 1.717-1.058 2.3-0.7 0.578-1.656 0.867-2.867 0.867h-4.092v-9.017h2.417v2.642zM89.589 16.892v2.517h1.708c0.478 0 0.844-0.111 1.1-0.333s0.383-0.525 0.383-0.908c0-0.389-0.125-0.697-0.375-0.925-0.25-0.233-0.619-0.35-1.108-0.35h-1.708zM101.321 19.558c0.444 0 0.806-0.122 1.083-0.367s0.422-0.57 0.433-0.975h2.258c-0.006 0.611-0.172 1.172-0.5 1.683-0.328 0.506-0.778 0.9-1.35 1.183-0.567 0.278-1.194 0.417-1.883 0.417-1.289 0-2.306-0.408-3.050-1.225-0.744-0.822-1.117-1.956-1.117-3.4v-0.158c0-1.389 0.37-2.497 1.108-3.325s1.753-1.242 3.042-1.242c1.128 0 2.031 0.322 2.708 0.967 0.683 0.639 1.031 1.492 1.042 2.558h-2.258c-0.011-0.467-0.156-0.844-0.433-1.133-0.278-0.294-0.644-0.442-1.1-0.442-0.561 0-0.986 0.206-1.275 0.617-0.283 0.406-0.425 1.067-0.425 1.983v0.25c0 0.928 0.142 1.594 0.425 2s0.714 0.608 1.292 0.608zM115.011 12.317v9.017h-2.4v-3.117h-1.524l-1.733 3.117h-2.442l1.966-3.525c-0.539-0.25-0.955-0.589-1.249-1.017-0.289-0.428-0.434-0.914-0.434-1.458 0-0.872 0.336-1.586 1.009-2.142 0.677-0.561 1.583-0.853 2.717-0.875h4.091zM110.962 16.533h1.649v-2.283h-1.566c-0.428 0-0.775 0.114-1.042 0.342-0.267 0.222-0.4 0.494-0.4 0.817s0.128 0.589 0.384 0.8c0.255 0.211 0.58 0.319 0.975 0.325z"></path>
<path fill="#fff" style="fill: var(--color1, #fff)" d="M152.533 3.2l-25.6 14.4 8.181 3.030 12.619-11.83-9.598 12.949 0.007 0.003-0.010-0.003v7.051l4.588-5.353 5.812 2.153 4-22.4z"></path>
</symbol>
</defs>
</svg>
